<svg xmlns="http://www.w3.org/2000/svg" version="1.1" xmlns:xlink="http://www.w3.org/1999/xlink" xmlns:svgjs="http://svgjs.com/svgjs" width="1440" height="560" preserveAspectRatio="none" viewBox="0 0 1440 560"><g mask="url(&quot;#SvgjsMask1005&quot;)" fill="none"><rect width="1440" height="560" x="0" y="0" fill="rgba(31, 89, 149, 1)"></rect><path d="M0,714.998C136.603,709.908,154.899,493.539,265.953,413.831C367.879,340.674,532.336,377.498,608.805,278.032C686.673,176.746,691.251,28.578,656.69,-94.418C623.673,-211.921,521.19,-292.454,426.771,-369.799C345.068,-436.727,253.08,-488.25,149.675,-509.747C51.796,-530.095,-44.04,-499.5,-143.386,-488.328C-266.407,-474.494,-421.445,-528.981,-503.511,-436.295C-585.367,-343.847,-516.908,-196.759,-510.741,-73.434C-505.792,25.528,-512.093,124.935,-470.94,215.071C-429.785,305.212,-346.949,362.008,-279.003,434.137C-186.648,532.177,-134.597,720.013,0,714.998" fill="#194777"></path><path d="M1440 914.031C1506.046 908.094 1568.549 882.191 1620.909 841.501 1670.357 803.0740000000001 1698.218 746.691 1726.941 691.042 1757.076 632.657 1809.463 572.775 1792.353 509.339 1775.101 445.376 1685.914 434.541 1643.934 383.28999999999996 1600.06 329.727 1609.885 227.11599999999999 1543.929 206.05 1478.455 185.13799999999998 1427.444 273.282 1361.639 293.127 1296.578 312.748 1216.173 277.366 1163.814 320.683 1111.089 364.303 1110.664 443.563 1098.424 510.889 1085.738 580.665 1066.208 652.909 1091.358 719.22 1117.17 787.277 1173.367 840.5129999999999 1236.908 876.018 1298.275 910.308 1369.985 920.3240000000001 1440 914.031" fill="#256bb3"></path></g><defs><mask id="SvgjsMask1005"><rect width="1440" height="560" fill="#ffffff"></rect></mask></defs></svg>